<svg width="20" height="20" viewBox="0 0 22 22" fill="none" xmlns="http://www.w3.org/2000/svg">
<path d="M21 11C21 16.5228 16.5228 21 11 21C5.47715 21 1 16.5228 1 11M21 11C21 5.47715 16.5228 1 11 1C5.47715 1 1 5.47715 1 11M21 11H1M11 1.06174C13.7278 3.50316 15.4445 7.05111 15.4445 11C15.4445 14.9489 13.7278 18.4968 11 20.9383M11.0695 21C8.30141 18.5569 6.55556 14.9823 6.55556 11C6.55556 7.01769 8.30141 3.44315 11.0695 1" stroke="#2A2A2A" stroke-width="2" stroke-linecap="round" stroke-linejoin="round"/>
</svg>
